<?xml version="1.0" encoding="UTF-8"?>
<svg version="1.1" xmlns="http://www.w3.org/2000/svg" width="512" height="512">
<path d="M0 0 C4.10553276 3.73230251 6.25232936 7.43014978 7.0625 12.875 C7.14669036 14.83750808 7.18030493 16.80253726 7.17602539 18.7668457 C7.17594986 19.92767166 7.17587433 21.08849762 7.17579651 22.28450012 C7.17063522 23.52737289 7.16547394 24.77024567 7.16015625 26.05078125 C7.15803383 27.97122505 7.15803383 27.97122505 7.15586853 29.9304657 C7.15206397 33.3219704 7.14225143 36.71343177 7.13116455 40.10491943 C7.12090598 43.57059126 7.11630649 47.03627035 7.11132812 50.50195312 C7.10115883 57.29300692 7.08158196 64.08394199 7.0625 70.875 C21.5825 70.875 36.1025 70.875 51.0625 70.875 C50.99289063 66.40839844 50.92328125 61.94179687 50.8515625 57.33984375 C50.81294359 53.76567336 50.78041895 50.19156237 50.7519989 46.61730194 C50.72038691 42.85096485 50.67818807 39.08544529 50.60986328 35.31958008 C50.54440056 31.68850742 50.50873859 28.0582246 50.49323654 24.42660713 C50.48219774 23.04509618 50.46064043 21.66362578 50.42811966 20.28245354 C50.15323876 8.11813648 50.15323876 8.11813648 53.84912109 3.59594727 C57.53010897 -0.01786073 61.1866529 -1.4604982 66.3125 -1.6875 C71.94383361 -1.61201295 74.64308071 0.1973204 78.6015625 4.05078125 C81.35263071 7.48593862 81.18460719 10.67615424 81.17602539 14.90698242 C81.17594986 16.14804245 81.17587433 17.38910248 81.17579651 18.66777039 C81.17068991 20.02200358 81.16547391 21.37623637 81.16015625 22.73046875 C81.15829083 24.11623585 81.15686751 25.50200361 81.15586853 26.88777161 C81.1520531 30.5324791 81.14223113 34.17714665 81.13116455 37.82183838 C81.1209295 41.54202728 81.11631162 45.26222284 81.11132812 48.98242188 C81.10113885 56.27998318 81.08156476 63.57743484 81.0625 70.875 C96.2425 70.875 111.4225 70.875 127.0625 70.875 C126.99289062 66.40839844 126.92328125 61.94179687 126.8515625 57.33984375 C126.81294359 53.76567336 126.78041895 50.19156237 126.7519989 46.61730194 C126.72038691 42.85096485 126.67818807 39.08544529 126.60986328 35.31958008 C126.54440056 31.68850742 126.50873859 28.0582246 126.49323654 24.42660713 C126.48219774 23.04509618 126.46064043 21.66362578 126.42811966 20.28245354 C126.15323876 8.11813648 126.15323876 8.11813648 129.84912109 3.59594727 C133.66146924 -0.14682361 137.19531166 -1.41542779 142.5 -1.4375 C146.85399014 -1.33907203 149.72843742 -1.15596598 153.0625 1.875 C157.41774694 7.44003775 158.19109839 11.8483393 158.17602539 18.7668457 C158.17594986 19.92767166 158.17587433 21.08849762 158.17579651 22.28450012 C158.17063522 23.52737289 158.16547394 24.77024567 158.16015625 26.05078125 C158.15803383 27.97122505 158.15803383 27.97122505 158.15586853 29.9304657 C158.15206397 33.3219704 158.14225143 36.71343177 158.13116455 40.10491943 C158.12090597 43.57059137 158.11636141 47.03627036 158.11132812 50.50195312 C158.10030755 57.29298748 158.0835757 64.08398981 158.0625 70.875 C158.99407425 70.85858459 159.9256485 70.84216919 160.88545227 70.82525635 C163.45419125 70.77999222 166.02294294 70.73544458 168.59170532 70.69152832 C170.62581425 70.65453681 172.65989684 70.6146598 174.69369507 70.56335449 C189.98834927 70.18010566 201.98471314 73.42051188 213.28125 83.94140625 C224.36933279 95.50528363 226.20413541 108.88832821 226.10546875 124.28515625 C226.10236694 125.20945435 226.09926514 126.13375244 226.09606934 127.08605957 C226.08802632 129.34907216 226.07675641 131.61201946 226.0625 133.875 C226.81338898 133.86611755 227.56427795 133.85723511 228.33792114 133.8480835 C235.42917919 133.76779271 242.52027865 133.70696239 249.61186409 133.66775131 C253.2573912 133.64691429 256.90254136 133.61866916 260.54785156 133.57324219 C264.06864987 133.52964357 267.58908661 133.50583369 271.11013412 133.49549103 C273.10097947 133.48454994 275.09168022 133.45334601 277.08230591 133.42181396 C288.31823004 133.41903332 288.31823004 133.41903332 293.0625 137.875 C297.08270184 142.32981826 298.4550158 145.66785481 298.33203125 151.75 C297.85715055 155.49398699 296.48549635 158.02303041 294.0625 160.875 C286.94286637 165.59392532 280.52090079 165.40147933 272.15625 165.265625 C270.82247776 165.25815092 269.48869444 165.25246351 268.15490723 165.24847412 C264.66944266 165.23330909 261.18466055 165.19410919 257.69946289 165.1496582 C254.13307082 165.10850596 250.56656359 165.09020059 247 165.0703125 C240.02023354 165.02973246 233.04233325 164.95142153 226.0625 164.875 C226.0625 181.375 226.0625 197.875 226.0625 214.875 C230.45691406 214.80539063 234.85132813 214.73578125 239.37890625 214.6640625 C242.89572886 214.62544249 246.41249108 214.59291826 249.92940521 214.5644989 C253.63509579 214.53288929 257.33995519 214.4906952 261.04516602 214.42236328 C264.61788532 214.35689149 268.18980171 214.3212368 271.76307487 214.30573654 C273.12225922 214.29469931 274.48140244 214.27314505 275.84024239 214.24061966 C287.80627624 213.96574125 287.80627624 213.96574125 292.32788086 217.66162109 C295.99208916 221.37915082 297.38643623 225.00095476 297.5625 230.1875 C297.48015469 235.32035788 296.29859776 237.88620206 292.765625 241.53515625 C288.88920374 244.58472619 285.92862787 245.12238069 281.00878906 245.10205078 C279.78782532 245.10189972 278.56686157 245.10174866 277.30889893 245.10159302 C275.99524353 245.09127045 274.68158813 245.08094788 273.328125 245.0703125 C271.96620898 245.06658042 270.60429027 245.06373437 269.24237061 245.06173706 C265.66502414 245.05411594 262.08784115 245.03448069 258.51055908 245.0123291 C254.8573227 244.99183779 251.20405902 244.98261862 247.55078125 244.97265625 C240.38787666 244.95229552 233.22542043 244.91314573 226.0625 244.875 C226.0625 261.375 226.0625 277.875 226.0625 294.875 C230.39632813 294.82859375 234.73015625 294.7821875 239.1953125 294.734375 C242.6603245 294.70863425 246.12530932 294.68694913 249.59036255 294.66799927 C253.24305544 294.64691408 256.89537446 294.61875848 260.54785156 294.57324219 C264.06864987 294.52964357 267.58908661 294.50583369 271.11013412 294.49549103 C273.10097947 294.48454994 275.09168022 294.45334601 277.08230591 294.42181396 C288.31823004 294.41903332 288.31823004 294.41903332 293.0625 298.875 C297.08270184 303.32981826 298.4550158 306.66785481 298.33203125 312.75 C297.85715055 316.49398699 296.48549635 319.02303041 294.0625 321.875 C286.94286637 326.59392532 280.52090079 326.40147933 272.15625 326.265625 C270.82247776 326.25815092 269.48869444 326.25246351 268.15490723 326.24847412 C264.66944266 326.23330909 261.18466055 326.19410919 257.69946289 326.1496582 C254.13306913 326.10850594 250.5665635 326.09042086 247 326.0703125 C240.02055561 326.02760362 233.0415607 325.95946583 226.0625 325.875 C226.06642761 326.44583817 226.07035522 327.01667633 226.07440186 327.60481262 C226.09011152 330.22221239 226.09978693 332.83960218 226.109375 335.45703125 C226.11880127 336.80383972 226.11880127 336.80383972 226.12841797 338.17785645 C226.16991715 353.30084888 222.94959152 365.5221665 212.5625 376.875 C201.16062463 387.97906519 187.60286704 389.18720983 172.5625 389 C171.15365219 388.98995069 169.74479745 388.98082829 168.3359375 388.97265625 C164.9112795 388.94919969 161.48698061 388.91637384 158.0625 388.875 C158.06694122 389.58608414 158.07138245 390.29716827 158.07595825 391.02980042 C158.1161429 397.75287968 158.14653905 404.4759251 158.16612434 411.19909763 C158.17653205 414.65500096 158.19063566 418.11080449 158.21337891 421.56665039 C158.2393997 425.54572325 158.24899772 429.52475663 158.2578125 433.50390625 C158.26813507 434.73645645 158.27845764 435.96900665 158.28909302 437.23890686 C158.29085266 450.75903054 158.29085266 450.75903054 154.66015625 455.8359375 C154.15355469 456.30257813 153.64695312 456.76921875 153.125 457.25 C152.36896484 457.97316406 152.36896484 457.97316406 151.59765625 458.7109375 C147.85777188 461.54677858 143.35565932 461.3227196 138.86328125 461.29296875 C134.41537722 460.62919507 131.79330438 458.34622656 129.0625 454.875 C126.9325793 451.44507833 126.81918175 448.73128971 126.83544922 444.72949219 C126.83560028 443.48850769 126.83575134 442.24752319 126.83590698 440.96893311 C126.84611939 439.6199121 126.85655136 438.27089273 126.8671875 436.921875 C126.87091951 435.5375387 126.87376559 434.15319975 126.87576294 432.76885986 C126.88338466 429.1323309 126.90302045 425.49596269 126.9251709 421.85949707 C126.9456609 418.14593723 126.95488109 414.43235055 126.96484375 410.71875 C126.98520558 403.4373582 127.02435526 396.15640738 127.0625 388.875 C111.8825 388.875 96.7025 388.875 81.0625 388.875 C81.13210938 393.34160156 81.20171875 397.80820312 81.2734375 402.41015625 C81.31205641 405.98432664 81.34458105 409.55843763 81.3730011 413.13269806 C81.40461309 416.89903515 81.44681193 420.66455471 81.51513672 424.43041992 C81.58059944 428.06149258 81.61626141 431.6917754 81.63176346 435.32339287 C81.64280226 436.70490382 81.66435957 438.08637422 81.69688034 439.46754646 C81.97176124 451.63186352 81.97176124 451.63186352 78.27587891 456.15405273 C74.59489103 459.76786073 70.9383471 461.2104982 65.8125 461.4375 C60.18116639 461.36201295 57.48191929 459.5526796 53.5234375 455.69921875 C50.77236929 452.26406138 50.94039281 449.07384576 50.94897461 444.84301758 C50.94905014 443.60195755 50.94912567 442.36089752 50.94920349 441.08222961 C50.95431009 439.72799642 50.95952609 438.37376363 50.96484375 437.01953125 C50.96670917 435.63376415 50.96813249 434.24799639 50.96913147 432.86222839 C50.9729469 429.2175209 50.98276887 425.57285335 50.99383545 421.92816162 C51.0040705 418.20797272 51.00868838 414.48777716 51.01367188 410.76757812 C51.02386115 403.47001682 51.04343524 396.17256516 51.0625 388.875 C36.5425 388.875 22.0225 388.875 7.0625 388.875 C7.08570313 392.98066406 7.10890625 397.08632813 7.1328125 401.31640625 C7.14568747 404.60384754 7.15652847 407.89128164 7.16600037 411.17873383 C7.17653221 414.64142472 7.19059099 418.10401662 7.21337891 421.56665039 C7.2393997 425.54572325 7.24899772 429.52475663 7.2578125 433.50390625 C7.26813507 434.73645645 7.27845764 435.96900665 7.28909302 437.23890686 C7.29085266 450.75903054 7.29085266 450.75903054 3.66015625 455.8359375 C3.15355469 456.30257813 2.64695313 456.76921875 2.125 457.25 C1.36896484 457.97316406 1.36896484 457.97316406 0.59765625 458.7109375 C-3.14222812 461.54677858 -7.64434068 461.3227196 -12.13671875 461.29296875 C-16.58462278 460.62919507 -19.20669562 458.34622656 -21.9375 454.875 C-24.0674207 451.44507833 -24.18081825 448.73128971 -24.16455078 444.72949219 C-24.16432419 442.86801544 -24.16432419 442.86801544 -24.16409302 440.96893311 C-24.15388061 439.6199121 -24.14344864 438.27089273 -24.1328125 436.921875 C-24.12908049 435.5375387 -24.12623441 434.15319975 -24.12423706 432.76885986 C-24.11661534 429.1323309 -24.09697955 425.49596269 -24.0748291 421.85949707 C-24.05433909 418.14593683 -24.04522861 414.43235052 -24.03515625 410.71875 C-24.01373215 403.43742686 -23.97961401 396.15623599 -23.9375 388.875 C-24.78868408 388.89071045 -25.63986816 388.9064209 -26.5168457 388.92260742 C-29.72808507 388.97427151 -32.93910997 389.01160717 -36.15063477 389.03979492 C-37.53058926 389.05471942 -38.91049772 389.07506661 -40.2902832 389.10131836 C-54.93740751 389.37265993 -68.46737618 387.11340395 -79.625 376.9375 C-87.25602455 368.8862947 -92.08560447 358.45798268 -92.03515625 347.359375 C-92.03032227 345.48378906 -92.03032227 345.48378906 -92.02539062 343.5703125 C-92.01282227 341.61738281 -92.01282227 341.61738281 -92 339.625 C-91.99548828 338.30757813 -91.99097656 336.99015625 -91.98632812 335.6328125 C-91.97454316 332.38016259 -91.95809011 329.12760416 -91.9375 325.875 C-92.70091705 325.88388245 -93.46433411 325.89276489 -94.25088501 325.9019165 C-101.45989084 325.98220198 -108.66867863 326.04303471 -115.87801552 326.08224869 C-119.5840735 326.10308715 -123.2897608 326.13133503 -126.99560547 326.17675781 C-130.57475786 326.22035112 -134.15355464 326.24416523 -137.73295212 326.25450897 C-139.09568247 326.26187635 -140.45839427 326.27626338 -141.82097244 326.29792023 C-155.04324923 326.49963877 -155.04324923 326.49963877 -159.9375 321.875 C-163.95770184 317.42018174 -165.3300158 314.08214519 -165.20703125 308 C-164.73209063 304.25554065 -163.3598058 301.72789803 -160.9375 298.875 C-153.77336436 294.10674624 -147.23436599 294.34990537 -138.8125 294.484375 C-137.45630737 294.49184876 -136.10010384 294.49753632 -134.74389648 294.50152588 C-131.1992536 294.5166934 -127.6552814 294.55589564 -124.11090088 294.6003418 C-120.48418408 294.64148852 -116.85735415 294.65979822 -113.23046875 294.6796875 C-106.13222298 294.7202721 -99.03581139 294.79858277 -91.9375 294.875 C-91.9375 278.375 -91.9375 261.875 -91.9375 244.875 C-96.4646875 244.95621094 -100.991875 245.03742188 -105.65625 245.12109375 C-108.53652921 245.15689116 -111.41653146 245.19058911 -114.296875 245.21679688 C-118.86191258 245.25853128 -123.42596086 245.30772124 -127.99023438 245.40307617 C-131.67321039 245.47953167 -135.35512487 245.52107096 -139.03883362 245.5391407 C-140.43909914 245.55200517 -141.83931109 245.57712794 -143.23912048 245.6151104 C-155.55670335 245.93582833 -155.55670335 245.93582833 -160.79882812 241.51977539 C-164.4629948 237.7869658 -165.10291161 234.64579375 -165.1875 229.5 C-165.1296003 225.10541286 -165.00047492 222.24427241 -161.9375 218.875 C-157.60698578 215.51522348 -154.85132913 214.37765748 -149.38134766 214.42089844 C-148.10047272 214.42120056 -146.81959778 214.42150269 -145.49990845 214.42181396 C-144.11712002 214.44223588 -142.73433806 214.46309979 -141.3515625 214.484375 C-139.9252502 214.49184326 -138.49892758 214.49753343 -137.07260132 214.50152588 C-133.33395638 214.51673652 -129.59594143 214.55597743 -125.85754395 214.6003418 C-121.363846 214.64862258 -116.8699364 214.66685042 -112.37605286 214.69015503 C-105.5627649 214.72883279 -98.75085689 214.80551534 -91.9375 214.875 C-91.9375 198.375 -91.9375 181.875 -91.9375 164.875 C-98.52912109 164.94460937 -98.52912109 164.94460937 -105.25390625 165.015625 C-108.77073462 165.04137172 -112.28753616 165.06305474 -115.80440521 165.08200073 C-119.50985305 165.10307243 -123.21493142 165.13120291 -126.92016602 165.17675781 C-130.49283924 165.22040511 -134.06515548 165.24417649 -137.63807487 165.25450897 C-138.99718783 165.26186674 -140.35628253 165.27623472 -141.71524239 165.29792023 C-154.95139884 165.50062363 -154.95139884 165.50062363 -160.9375 160.875 C-163.83455662 157.41886228 -165.16794489 153.29059289 -165.4375 148.8125 C-164.85095076 144.19342473 -163.93653684 141.40268639 -160.9375 137.875 C-153.77336436 133.10674624 -147.23436599 133.34990537 -138.8125 133.484375 C-137.45630737 133.49184876 -136.10010384 133.49753632 -134.74389648 133.50152588 C-131.1992536 133.5166934 -127.6552814 133.55589564 -124.11090088 133.6003418 C-120.48418242 133.64148854 -116.85735406 133.65957798 -113.23046875 133.6796875 C-106.13254053 133.72240081 -99.03506439 133.79054167 -91.9375 133.875 C-91.95321045 133.10945801 -91.9689209 132.34391602 -91.98510742 131.55517578 C-92.04803879 128.03686108 -92.08667429 124.51866538 -92.125 121 C-92.15013672 119.79601562 -92.17527344 118.59203125 -92.20117188 117.3515625 C-92.31306727 103.6257271 -88.66110455 92.84821412 -79.3125 82.625 C-67.63360203 71.59368911 -53.58310592 70.55951681 -38.375 70.75 C-36.97070953 70.76005265 -35.56641207 70.76917445 -34.16210938 70.77734375 C-30.75372515 70.80076907 -27.345705 70.83357254 -23.9375 70.875 C-23.9574855 69.71441322 -23.9574855 69.71441322 -23.97787476 68.53038025 C-24.0983773 61.21871879 -24.18958716 53.90754251 -24.24837303 46.59514523 C-24.27961267 42.83619065 -24.32194592 39.07806032 -24.39013672 35.31958008 C-24.45559944 31.68850742 -24.49126141 28.0582246 -24.50676346 24.42660713 C-24.51780226 23.04509618 -24.53935957 21.66362578 -24.57188034 20.28245354 C-24.84676124 8.11813648 -24.84676124 8.11813648 -21.15087891 3.59594727 C-15.38555009 -2.0641614 -7.43561923 -2.84768396 0 0 Z M-59.28075409 107.45521545 C-61.47330894 111.98099407 -61.49441509 115.62660073 -61.44543457 120.59155273 C-61.45167453 121.56433135 -61.4579145 122.53710997 -61.46434355 123.53936672 C-61.48028672 126.79602294 -61.46766372 130.05193209 -61.45507812 133.30859375 C-61.46049863 135.64454586 -61.46762089 137.98049456 -61.47631836 140.31643677 C-61.49456291 146.65934242 -61.48747931 153.00198799 -61.47480202 159.34489822 C-61.46570616 165.30799207 -61.47264661 171.2710537 -61.4785108 177.23414838 C-61.48991262 189.76428893 -61.47680919 202.29431235 -61.45530933 214.82443368 C-61.43743867 225.57214204 -61.44054289 236.31967758 -61.45898438 247.06738281 C-61.48039817 259.55316672 -61.48881402 272.03884801 -61.47653532 284.52464771 C-61.47029674 291.13226789 -61.46947494 297.73976905 -61.48268127 304.34738159 C-61.49422921 310.55923192 -61.48623286 316.77075563 -61.46310425 322.98257065 C-61.45781158 325.26343112 -61.45934041 327.54431903 -61.46815491 329.82516861 C-61.47907147 332.93663359 -61.46539287 336.0470493 -61.44543457 339.15844727 C-61.45435746 340.06292319 -61.46328034 340.96739912 -61.47247362 341.89928341 C-61.40467589 347.34139944 -60.74524499 350.68219713 -56.9375 354.875 C-51.90900603 358.39028728 -47.20520146 358.30228031 -41.296875 358.26268005 C-39.84995773 358.27075836 -39.84995773 358.27075836 -38.37380981 358.27899987 C-35.14490972 358.29329557 -31.91641864 358.28617163 -28.6875 358.27905273 C-26.37125316 358.2847554 -24.05500912 358.29171925 -21.73876953 358.29985046 C-15.44962588 358.3178071 -9.16062156 358.31660888 -2.87145996 358.31090808 C2.37729907 358.30782026 7.62603118 358.31390406 12.87478638 358.31994683 C25.96298932 358.33480177 39.0511139 358.33117154 52.13931656 358.31908352 C63.50309785 358.30914871 74.86671638 358.32209665 86.23047256 358.34601771 C97.90373881 358.3704049 109.57692246 358.37961786 121.25021362 358.37336498 C127.80195133 358.36999056 134.3535545 358.37244302 140.90527344 358.38961601 C147.06458144 358.40505569 153.22357797 358.40116241 159.38287354 358.38231087 C161.64438822 358.37861695 163.90592583 358.38175668 166.16741943 358.39219666 C169.25259942 358.40535273 172.33674007 358.39390621 175.421875 358.37620544 C176.31856903 358.38581045 177.21526306 358.39541546 178.13912964 358.40531152 C183.60740775 358.34067766 186.71337849 357.50167483 191.0625 353.875 C194.43858625 350.14966345 195.18513173 346.71485072 195.19392776 341.77913189 C195.19776891 340.96733681 195.20161005 340.15554174 195.2055676 339.31914681 C195.20426787 337.98973611 195.20426787 337.98973611 195.20294189 336.63346863 C195.20739858 335.2146743 195.20739858 335.2146743 195.2119453 333.76721746 C195.22063427 330.58983854 195.22214071 327.41249729 195.22363281 324.23510742 C195.22826081 321.960189 195.23328545 319.68527135 195.23867798 317.41035461 C195.25180495 311.22436863 195.25824742 305.03839351 195.26268864 298.85239577 C195.26561863 294.98887406 195.26972327 291.12535532 195.27419281 287.2618351 C195.28630107 276.5619004 195.29668355 265.86196933 195.3000679 255.16202831 C195.30028747 254.47744392 195.30050703 253.79285953 195.30073325 253.08753015 C195.30095153 252.40132284 195.30116981 251.71511552 195.3013947 251.00811404 C195.30183816 249.61763267 195.30228473 248.22715129 195.30273438 246.83666992 C195.3029558 246.14694547 195.30317723 245.45722103 195.30340537 244.74659584 C195.30735329 233.57092472 195.32480795 222.39531881 195.3480939 211.21967288 C195.37181594 199.7419699 195.38401221 188.26431429 195.38543582 176.78658372 C195.38648472 170.34378538 195.39241072 163.90107904 195.41025543 157.45830345 C195.42671319 151.39839167 195.42890269 145.33864127 195.42011642 139.27871513 C195.41934485 137.054706 195.42370459 134.83068827 195.43357468 132.6067009 C195.44626074 129.57010185 195.44043528 126.53407726 195.42999268 123.4974823 C195.43804908 122.61790066 195.44610548 121.73831903 195.45440602 120.8320834 C195.41095131 115.42736053 194.62837872 111.66187506 192.0625 106.875 C188.2716593 103.27370133 185.24596073 101.75271858 180.04003429 101.74357224 C179.21916338 101.73973109 178.39829247 101.73588995 177.55254668 101.7319324 C176.65100507 101.73279888 175.74946347 101.73366537 174.82060242 101.73455811 C173.86263773 101.73158698 172.90467305 101.72861586 171.91767913 101.7255547 C168.69340169 101.71685226 165.46916131 101.71535815 162.24487305 101.71386719 C159.93892334 101.70924013 157.63297441 101.70421562 155.32702637 101.69882202 C149.05220817 101.68568568 142.77740067 101.67925072 136.50257087 101.67481136 C132.5846217 101.67188278 128.66667548 101.66777839 124.7487278 101.66330719 C113.90128404 101.65119705 103.05384352 101.6408153 92.20639324 101.6374321 C91.51211933 101.63721253 90.81784542 101.63699297 90.10253291 101.63676675 C89.40659719 101.63654847 88.71066147 101.63633019 87.99363679 101.6361053 C86.58340434 101.63566183 85.1731719 101.63521527 83.76293945 101.63476562 C83.06341535 101.6345442 82.36389124 101.63432277 81.64316944 101.63409463 C70.30832971 101.6301466 58.97355427 101.61269236 47.63873937 101.5894061 C36.00174405 101.56569199 24.36478416 101.55348821 12.72776443 101.55206418 C6.19388074 101.55101475 -0.33991229 101.54507747 -6.87377357 101.52724457 C-13.01902901 101.51079888 -19.16412528 101.5085914 -25.30939484 101.51738358 C-27.56607425 101.51815581 -29.82276209 101.51378677 -32.07942009 101.50392532 C-35.15802142 101.49126003 -38.23605445 101.49705337 -41.31465149 101.50750732 C-42.65692565 101.49542272 -42.65692565 101.49542272 -44.02631646 101.48309398 C-50.50720086 101.5346305 -54.74526931 102.46108018 -59.28075409 107.45521545 Z " fill="#000000" transform="translate(189.9375,26.125)"/>
<path d="M0 0 C1.03341019 -0.00700928 2.06682037 -0.01401855 3.13154602 -0.02124023 C6.53393745 -0.03878785 9.93549131 -0.02720835 13.33789062 -0.01367188 C15.71008463 -0.0163677 18.08227755 -0.02025088 20.45446777 -0.02526855 C25.42076155 -0.03115925 30.38676712 -0.02261406 35.35302734 -0.00390625 C41.71181938 0.01888257 48.06993604 0.00575726 54.42870331 -0.01819611 C59.32555205 -0.03266538 64.22224125 -0.0280428 69.11909485 -0.01768494 C71.46340515 -0.0150208 73.80773005 -0.01827636 76.15202332 -0.02760315 C79.43116503 -0.03778686 82.70922024 -0.02224078 85.98828125 0 C87.43482841 -0.01214539 87.43482841 -0.01214539 88.91059875 -0.02453613 C94.96503666 0.05135652 98.61979827 0.82618852 103.49414062 4.51757812 C108.27758619 9.65329388 108.0657239 14.54745519 108.01171875 21.20117188 C108.01872803 22.26530304 108.0257373 23.3294342 108.03295898 24.42581177 C108.05053328 27.93583434 108.03891752 31.44504765 108.02539062 34.95507812 C108.02808568 37.39835769 108.03196822 39.84163621 108.0369873 42.28491211 C108.04288162 47.40261051 108.03432112 52.52002943 108.015625 57.63769531 C107.99283601 64.19502509 108.00595937 70.75169998 108.02991486 77.30900574 C108.04437432 82.3533623 108.03976604 87.3975638 108.02940369 92.44192505 C108.02673684 94.8596301 108.03000465 97.27734927 108.0393219 99.69503784 C108.0494894 103.07506562 108.03398198 106.45403532 108.01171875 109.83398438 C108.01981567 110.83156769 108.0279126 111.829151 108.03625488 112.85696411 C107.96691636 118.5441473 107.53898789 122.17485371 103.49414062 126.51757812 C97.78848127 130.82915356 93.1054528 131.09468307 86.09594727 131.03515625 C85.07389694 131.04216553 84.05184662 131.0491748 82.99882507 131.05639648 C79.63370268 131.07394404 76.26942724 131.06236377 72.90429688 131.04882812 C70.55691873 131.05152416 68.20954168 131.05540751 65.86216736 131.0604248 C60.94714709 131.06631567 56.03241801 131.05777056 51.11743164 131.0390625 C44.82823758 131.01628625 38.53972685 131.02939091 32.2505579 131.05335236 C27.40428046 131.06783192 22.55816402 131.06319413 17.71188164 131.05284119 C15.39351762 131.05017924 13.07513882 131.05342487 10.75679207 131.0627594 C7.51137923 131.07295873 4.26706025 131.05737482 1.02172852 131.03515625 C0.07030975 131.04325317 -0.88110901 131.0513501 -1.86135864 131.05969238 C-7.81827428 130.98443341 -12.69437893 130.23937748 -17.50585938 126.51757812 C-22.0221753 120.87885772 -22.0813609 115.85610896 -22.0234375 108.81225586 C-22.03044678 107.75773224 -22.03745605 106.70320862 -22.04467773 105.61672974 C-22.06222686 102.14460619 -22.0506461 98.67330315 -22.03710938 95.20117188 C-22.03980495 92.78174178 -22.04368792 90.36231274 -22.04870605 87.94288635 C-22.05459678 82.87824159 -22.04605068 77.81387944 -22.02734375 72.74926758 C-22.00454274 66.2603455 -22.01768797 59.7720848 -22.04163361 53.28318691 C-22.05609236 48.2894442 -22.05148534 43.29585812 -22.04112244 38.30211067 C-22.03845602 35.90952539 -22.04172187 33.51692584 -22.05104065 31.12435722 C-22.06120835 27.78035711 -22.04570109 24.43742639 -22.0234375 21.09350586 C-22.03153442 20.10684433 -22.03963135 19.1201828 -22.04797363 18.10362244 C-21.9781902 12.44094648 -21.52613607 8.84517041 -17.50585938 4.51757812 C-11.7766294 0.17877332 -7.04195888 -0.05912514 0 0 Z M9.49414062 31.51757812 C9.49414062 53.95757812 9.49414062 76.39757812 9.49414062 99.51757812 C31.93414062 99.51757812 54.37414062 99.51757812 77.49414062 99.51757812 C77.49414062 77.07757813 77.49414062 54.63757813 77.49414062 31.51757812 C55.05414063 31.51757812 32.61414063 31.51757812 9.49414062 31.51757812 Z " fill="#000000" transform="translate(213.505859375,190.482421875)"/>
</svg>
