<svg xmlns="http://www.w3.org/2000/svg" viewBox="0 0 107 97.75" fill="currentColor" stroke="currentColor" stroke-width="0.8" stroke-linejoin="round">
  <path d="M51.08,72.95c0.55,0,1-0.45,1-1V50.95c0-0.55-0.45-1-1-1s-1,0.45-1,1V71.95C50.08,72.5,50.52,72.95,51.08,72.95z"/>
  <path d="M10.99,90h48.13c0.55,0,1-0.45,1-1V25.99L70.67,89.17c0.04,0.26,0.19,0.5,0.41,0.65C71.25,89.94,71.45,90,71.66,90c0.05,0,0.11-0.005,0.17-0.01l17.33-2.9c0.54-0.09,0.91-0.61,0.82-1.15L77.86,13.46c-0.04-0.26-0.19-0.5-0.41-0.65c-0.22-0.15-0.48-0.21-0.75-0.17l-16.6,2.77v-4.43c0-0.55-0.45-1-1-1H43.02c-0.55,0-1,0.45-1,1v6.88H25.21v-6.87c0-0.55-0.45-1-1-1h-13.22c-0.55,0-1,0.45-1,1V89C9.99,89.55,10.44,90,10.99,90z M85.37,70.52L70.01,73.08l-1.56-9.36l15.36-2.57L85.37,70.52z M72.48,87.85l-2.14-12.79l15.36-2.57l2.14,12.79L72.48,87.85z M76.05,14.78l7.42,44.4l-15.36,2.57l-7.42-44.4L76.05,14.78z M11.99,88V72.37h11.22V88H11.99z M25.21,46h16.81v24.37H25.21V46z M42.02,44H25.21V33.8h16.81V44z M25.21,72.37h16.81V88H25.21V72.37z M58.11,12V88H44.02V12H58.11z M42.02,19.87v11.93H25.21V19.87H42.02z M23.21,12v58.36h-11.22V12H23.21z"/>
</svg>
