<svg xmlns="http://www.w3.org/2000/svg" fill="currentColor" viewBox="8.51 2.41 9.43 21.64">
  <path d="m 13.11,2.41 -2.22,3.01 h 1.82 v 11.18 l -2.58,-1.49 v -2.35 h 0.84 V 10.31 H 8.51 v 0.4 2.05 h 0.82 v 2.8 l 3.37,1.95 v 2.9 c -0.82,0.18 -1.44,0.92 -1.44,1.8 0,1.01 0.83,1.84 1.84,1.84 1.01,0 1.84,-0.83 1.84,-1.84 0,-0.88 -0.62,-1.61 -1.45,-1.8 v -5.47 l 3.34,-1.93 v -2.56 c 0.63,-0.17 1.11,-0.76 1.11,-1.45 0,-0.82 -0.68,-1.5 -1.5,-1.5 -0.82,0 -1.5,0.68 -1.5,1.5 0,0.69 0.47,1.27 1.11,1.45 v 2.1 l -2.55,1.47 V 5.42 h 1.73 l -0.44,-0.62 z"/>
</svg>